. 
  
http://www.torrenting.com/        :     Greatest Movie Tracker on The Net!!!
 
http://www.Torrenting.com          :     Once & For all ;)


               www . Torrenting . Com 

(((((((((((((= Enjoy No RAR releases =))))))))))))))))))))


...................................NFO:....................................

.[img]http://img845.imageshack.us/img845/3789/montecarlobluray.jpg[/img]

[color=blue][size=5][b]Monte.Carlo.2011.BDRip.XVID.AC3.HQ.Hive-CM8[/b][/size][/color]


[b]Thx Hive


CM8 Doing It Right The First Time :D


Source: Bluray

Video: 720x384 @bitrate 1800 2pass
Audio: English DTS to AC3 5.1 @384
Sample: yes included
Subs: yes English in srt /subs[/b]


[url]http://www.imdb.com/title/tt1067774/[/url]


General
Complete name                    : Monte.Carlo.2011.BDRip.XVID.AC3.HQ.Hive-CM8.avi
Format                           : AVI
Format/Info                      : Audio Video Interleave
File size                        : 1.67 GiB
Duration                         : 1h 48mn
Overall bit rate                 : 2 193 Kbps
Writing application              : Nandub v1.0rc2
Writing library                  : Nandub build 1853/release

Video
ID                               : 0
Format                           : MPEG-4 Visual
Format profile                   : Advanced Simple@L5
Format settings, BVOP            : 1
Format settings, QPel            : Yes
Format settings, GMC             : No warppoints
Format settings, Matrix          : Default (H.263)
Muxing mode                      : Packed bitstream
Codec ID                         : XVID
Codec ID/Hint                    : XviD
Duration                         : 1h 48mn
Bit rate                         : 1 799 Kbps
Width                            : 720 pixels
Height                           : 384 pixels
Display aspect ratio             : 1.850
Frame rate                       : 23.976 fps
Color space                      : YUV
Chroma subsampling               : 4:2:0
Bit depth                        : 8 bits
Scan type                        : Progressive
Compression mode                 : Lossy
Bits/(Pixel*Frame)               : 0.271
Stream size                      : 1.37 GiB (82%)
Writing library                  : XviD 1.2.1 (UTC 2008-12-04)

Audio
ID                               : 1
Format                           : AC-3
Format/Info                      : Audio Coding 3
Mode extension                   : CM (complete main)
Codec ID                         : 2000
Duration                         : 1h 48mn
Bit rate mode                    : Constant
Bit rate                         : 384 Kbps
Channel(s)                       : 6 channels
Channel positions                : Front: L C R, Side: L R, LFE
Sampling rate                    : 48.0 KHz
Bit depth                        : 16 bits
Compression mode                 : Lossy
Stream size                      : 299 MiB (18%)
Alignment                        : Split accross interleaves
Interleave, duration             : 42 ms (1.00 video frame)
Interleave, preload duration     : 500 ms


Three young women vacationing in Paris find themselves whisked away to Monte Carlo 
after one of the girls is mistaken for a British heiress.


Selena Gomez	... 	Grace / Cordelia Winthrop Scott
Katie Cassidy	... 	Emma
Leighton Meester	... 	Meg
Cory Monteith	... 	Owen
Andie MacDowell	... 	Pam


[img]http://img689.imageshack.us/img689/1902/97913061.png[/img]
[img]http://img824.imageshack.us/img824/8792/momot.png[/img]
[img]http://img851.imageshack.us/img851/6028/momomo.png[/img]
[img]http://img825.imageshack.us/img825/4277/momomomo.png[/img]
[img]http://img847.imageshack.us/img847/8463/momomomomo.png[/img]
[img]http://img641.imageshack.us/img641/1020/momomomomomo.png[/img]
[img]http://img42.imageshack.us/img42/2585/momomomomomomo.png[/img]




Greetz

ViSiON,SiC,SANTi,3LT0N,YanKeeS,MAGNET,THC,T0XiC,LKRG,FANTASIA-PLAY,FANTASIA-M,BHRG,
D2U,WBZ,FLAWL3SS,NOVA,Vik,Rapeseed,SAFC,goldadvance,MEMORY100,scumbag,KaN1vE,Unevano,Pinnz,
Mr Hive,Wayne,cedrict wink,and all P2P groups


LOOKING FOR ANYTHING YOU WANT TO LOOK AND SOUND BETTER



CM8@hushmail.com